<?xml version="1.0" standalone="no"?>
<!DOCTYPE svg PUBLIC "-//W3C//DTD SVG 20010904//EN"
 "http://www.w3.org/TR/2001/REC-SVG-20010904/DTD/svg10.dtd">
<svg version="1.0" xmlns="http://www.w3.org/2000/svg"
 width="2048.000000pt" height="1448.000000pt" viewBox="0 0 2048.000000 1448.000000"
 preserveAspectRatio="xMidYMid meet">

<g transform="translate(0.000000,1448.000000) scale(0.100000,-0.100000)"
fill="#000000" stroke="none">
<path d="M10145 11748 c-237 -20 -351 -62 -556 -204 -100 -69 -210 -173 -303
-287 -60 -73 -205 -341 -192 -355 3 -3 7 -3 9 -1 1 2 16 31 32 64 134 266 254
415 440 549 216 155 323 193 600 216 201 17 322 -3 476 -80 320 -161 556 -443
703 -840 19 -53 37 -107 39 -120 2 -14 9 -37 15 -52 11 -26 30 -125 67 -343 8
-49 26 -154 40 -231 13 -78 29 -201 35 -274 6 -73 12 -136 14 -139 2 -3 7 -71
10 -151 3 -80 9 -164 12 -188 4 -28 2 -52 -7 -68 -11 -21 -11 -27 0 -33 37
-23 -51 -439 -133 -626 -72 -165 -139 -259 -272 -381 -122 -111 -149 -130
-222 -156 -77 -27 -339 -42 -468 -27 l-92 11 10 35 c10 38 -3 82 -48 161 -41
69 -47 37 -8 -39 l36 -71 -26 -139 c-14 -77 -35 -160 -46 -186 -11 -25 -20
-52 -20 -59 0 -23 17 -16 29 14 27 63 31 64 102 43 35 -11 136 -41 224 -66
163 -46 219 -70 258 -105 12 -12 28 -18 39 -14 11 3 25 0 33 -6 25 -21 74 6
145 79 62 63 209 202 455 430 61 56 111 96 112 89 1 -7 5 -39 8 -70 6 -53 12
-64 73 -136 37 -44 110 -134 162 -202 52 -67 127 -163 167 -214 102 -129 145
-188 220 -296 l66 -95 23 -180 c34 -272 59 -401 119 -616 30 -107 65 -247 79
-309 l24 -114 -29 -90 c-16 -50 -29 -96 -29 -104 0 -7 22 -37 50 -66 l50 -53
-98 -42 c-53 -23 -131 -55 -172 -70 -41 -16 -104 -42 -140 -59 -94 -43 -144
-55 -241 -54 -101 1 -377 25 -534 47 -486 67 -779 78 -979 36 -129 -27 -124
-28 -121 17 4 57 35 234 45 257 5 11 18 65 29 120 12 55 25 116 30 135 6 19
24 94 41 165 16 72 36 155 44 185 52 202 71 300 70 367 -1 70 -3 73 -62 161
-33 50 -56 92 -51 94 6 2 -8 29 -30 61 l-41 58 9 92 c13 129 23 416 13 394 -7
-16 -14 -13 -67 24 -33 23 -73 43 -89 44 -17 1 -32 7 -34 14 -10 30 -20 3 -25
-71 -4 -45 -11 -86 -17 -92 -5 -5 -66 -10 -137 -10 -118 -1 -133 1 -193 27
-35 15 -74 29 -87 31 -41 8 -92 38 -99 58 -7 23 5 176 15 182 11 7 111 -30
143 -54 16 -12 33 -19 36 -15 4 4 -1 13 -11 20 -11 8 -17 23 -15 36 3 20 -4
26 -52 42 -168 57 -404 148 -408 158 -2 4 -38 21 -80 38 -65 25 -94 30 -180
32 l-102 3 -23 35 c-47 71 -79 133 -74 145 5 12 -18 57 -166 337 -47 89 -64
132 -60 148 6 25 49 47 232 117 63 24 118 49 123 56 14 23 9 -13 -22 -167 -31
-154 -36 -195 -22 -195 9 0 24 59 42 170 27 161 63 326 74 332 17 11 109 9
147 -3 19 -6 40 -13 48 -15 10 -3 10 -8 2 -18 -16 -20 -2 -27 23 -11 30 20
128 4 235 -37 17 -6 26 -5 32 4 10 16 -70 42 -176 59 -38 6 -82 17 -97 25 -14
8 -33 14 -42 14 -17 0 -63 91 -91 180 -10 30 -22 62 -28 70 -9 13 22 -19 72
-75 10 -11 31 -45 46 -75 33 -66 31 -64 44 -56 5 4 -11 48 -40 105 -27 56 -46
107 -43 115 4 10 -1 18 -11 22 -19 8 -50 74 -111 237 -87 234 -140 483 -150
707 -6 134 14 382 39 478 10 36 11 52 3 49 -32 -10 -70 -316 -64 -510 4 -122
3 -137 -11 -131 -45 20 -73 16 -103 -12 -55 -53 -173 -218 -213 -300 l-40 -81
-75 -22 c-95 -28 -102 -32 -119 -67 -37 -74 -53 -178 -58 -374 -6 -197 10
-450 28 -450 5 0 10 10 10 23 1 17 2 18 6 4 5 -21 -22 -67 -40 -67 -43 0 -233
-410 -292 -630 -89 -333 -107 -783 -50 -1281 56 -501 103 -810 145 -969 62
-234 152 -554 196 -695 25 -82 67 -224 94 -315 26 -91 54 -178 61 -193 14 -30
6 -46 -14 -29 -10 8 -88 11 -251 11 -189 -1 -241 2 -259 13 -47 30 -61 32
-457 58 -85 5 -220 17 -300 26 -143 17 -148 17 -285 -5 -197 -31 -229 -39
-328 -82 -118 -51 -212 -115 -325 -223 -143 -136 -259 -304 -306 -443 -80
-236 -70 -379 41 -573 106 -187 283 -446 382 -560 27 -30 82 -95 123 -143 55
-64 116 -119 224 -200 82 -62 174 -132 205 -157 51 -41 118 -90 268 -193 31
-22 61 -49 68 -62 7 -12 27 -33 45 -45 l33 -21 -36 6 c-20 3 -65 17 -99 31
-34 14 -65 23 -68 20 -8 -8 -4 -10 68 -39 86 -34 158 -46 530 -92 25 -3 250
-8 500 -10 529 -5 581 -8 795 -40 299 -45 458 -48 1117 -16 l197 10 51 -34
c89 -60 65 -61 570 21 52 8 136 19 185 24 50 4 110 13 135 19 25 5 97 15 160
22 63 6 147 15 185 20 93 11 229 10 195 -1 -14 -4 -64 -13 -112 -20 -49 -7
-88 -17 -88 -22 0 -6 11 -7 26 -4 14 4 62 11 107 17 139 16 257 92 257 164 0
12 -10 35 -22 50 l-21 27 106 -7 c69 -5 107 -4 107 3 0 12 -48 22 -109 22 -96
0 -118 9 -135 51 -10 23 -16 70 -16 112 0 40 -7 130 -15 201 -19 160 -28 326
-18 325 17 -1 47 -18 34 -18 -11 -1 -11 -4 -1 -16 10 -12 16 -13 26 -4 8 6 11
15 8 20 -3 5 7 10 23 10 15 1 55 4 88 6 33 2 80 3 104 4 34 0 44 4 48 19 4 13
14 20 31 20 14 0 33 7 43 16 27 25 192 25 242 0 50 -25 90 -91 81 -135 -6 -28
-4 -32 24 -42 32 -11 91 -87 136 -176 20 -41 38 -59 79 -83 88 -50 128 -59
339 -68 187 -8 198 -10 235 -34 66 -44 143 -119 143 -139 0 -13 12 -25 33 -34
18 -7 40 -22 48 -32 47 -53 161 -265 204 -377 19 -50 28 -61 59 -74 41 -16 61
-8 33 13 -17 12 -17 14 5 29 12 9 39 16 58 16 37 0 71 -28 113 -90 9 -14 24
-35 33 -48 16 -21 16 -24 0 -41 -10 -11 -27 -21 -38 -24 -18 -5 -20 -2 -15 29
5 26 2 34 -10 34 -11 0 -14 -6 -9 -25 5 -21 2 -26 -20 -31 -34 -9 -148 2 -174
16 -16 9 -20 8 -20 -5 0 -20 -54 -12 -160 22 -53 17 -115 27 -210 33 -236 16
-310 18 -310 10 0 -11 47 -16 261 -29 117 -7 197 -17 240 -30 35 -10 88 -25
118 -31 30 -7 66 -19 80 -26 50 -26 213 -11 260 24 47 35 48 46 9 109 -26 42
-35 65 -31 85 5 24 0 30 -43 55 -60 35 -128 104 -112 114 8 5 4 14 -13 29 -18
16 -33 19 -61 15 -29 -4 -38 -2 -38 10 0 9 6 12 15 9 8 -4 15 -1 15 5 0 13
-30 14 -50 1 -12 -8 -13 -13 -3 -29 8 -13 9 -22 3 -26 -18 -11 -10 -27 10 -22
23 6 27 -14 7 -31 -10 -8 -18 0 -36 36 -34 69 -39 79 -101 177 l-56 90 50 1
c646 11 694 13 731 28 21 9 43 16 50 16 6 0 36 24 66 53 109 104 306 285 399
366 102 88 182 170 315 321 120 136 227 246 248 253 9 4 17 15 17 25 0 10 7
27 15 38 18 23 19 48 3 73 -9 14 -9 61 0 197 6 99 9 190 7 204 -2 14 -9 65
-16 115 -14 110 -31 149 -100 242 -95 126 -456 516 -523 565 -38 27 -129 59
-209 73 -46 7 -352 7 -494 -1 -57 -3 -103 -3 -103 0 0 3 19 45 41 93 40 83 42
93 43 183 0 99 -21 191 -79 337 -27 68 -77 224 -120 373 -28 95 -62 198 -85
255 -46 111 -149 412 -206 600 -55 180 -70 217 -184 455 -63 131 -98 219 -120
300 -17 63 -52 176 -77 250 -64 186 -88 266 -103 329 -28 119 -191 496 -298
686 -82 147 -390 526 -517 638 -70 61 -78 73 -80 105 -5 153 -4 150 -32 179
-16 16 -44 41 -63 55 -27 19 -41 42 -59 94 -33 93 -136 317 -166 357 -20 28
-74 47 -133 47 l-59 0 -33 83 c-40 101 -70 154 -107 189 -46 43 -158 99 -256
127 -90 26 -91 27 -105 66 -82 232 -142 356 -255 525 -209 311 -572 536 -856
529 -31 -1 -101 -6 -156 -11z m1485 -1610 c27 -30 56 -95 81 -183 10 -38 19
-72 19 -75 -1 -3 -17 28 -36 68 -20 40 -42 76 -51 79 -20 8 -47 -27 -64 -81
l-12 -41 -13 78 c-12 77 -9 111 15 156 15 27 35 27 61 -1z m50 -230 c0 -5 -7
-8 -15 -8 -31 0 -13 -19 24 -25 23 -4 42 -13 46 -23 9 -25 7 -208 -4 -272 -11
-63 -49 -167 -88 -243 l-27 -52 -8 83 c-8 79 -7 85 17 116 34 45 57 105 51
132 -3 12 -21 33 -39 45 -46 33 -47 35 -47 124 0 83 12 154 32 193 12 23 12
22 35 -20 12 -24 22 -46 23 -50z m-3180 -182 c0 -3 -4 -8 -10 -11 -5 -3 -10
-1 -10 4 0 6 5 11 10 11 6 0 10 -2 10 -4z m3150 -127 c0 -11 -10 -39 -22 -62
l-22 -42 -7 40 c-4 22 -8 59 -8 83 l-1 43 30 -21 c17 -12 30 -30 30 -41z
m-2494 -92 c3 -19 31 -46 48 -47 6 0 0 9 -12 20 -25 24 -30 45 -7 33 8 -5 33
-46 55 -92 39 -80 37 -87 -8 -43 -7 6 -29 12 -47 12 -28 0 -37 -6 -50 -30 -16
-31 -20 -126 -6 -149 11 -18 34 -4 26 17 -24 63 -5 142 36 142 17 0 42 -37 37
-58 -1 -4 3 -18 10 -32 6 -14 23 -59 38 -100 16 -41 32 -77 35 -80 4 -3 -19
-6 -51 -7 -32 0 -67 -4 -78 -7 -25 -8 -73 54 -103 134 -17 46 -20 73 -17 162
3 98 5 108 28 128 28 24 62 23 66 -3z m2374 -1410 c0 -2 -19 -21 -42 -42 l-43
-40 40 43 c36 39 45 47 45 39z m-516 -113 l-6 -59 -73 -2 c-68 -2 -74 -1 -90
23 -17 27 -16 34 7 38 7 2 24 7 38 13 59 25 125 50 128 48 1 -1 -1 -28 -4 -61z
m-1446 -55 c23 -11 49 -19 58 -19 26 0 116 -43 104 -50 -6 -3 -13 -30 -17 -58
l-6 -51 -56 -7 c-73 -9 -120 -29 -131 -57 -11 -26 -40 -286 -40 -357 0 -33 -4
-50 -12 -51 -75 -6 -102 -10 -155 -27 -70 -22 -64 -25 -112 57 -29 48 -30 55
-17 70 9 9 13 26 10 37 -6 23 77 223 175 420 57 116 61 121 88 118 15 -2 20
-1 11 2 -10 3 -18 10 -18 15 0 8 18 2 118 -42z m1742 -44 c-24 -25 -46 -45
-49 -45 -3 0 15 20 39 45 24 25 46 45 49 45 3 0 -15 -20 -39 -45z m-315 -22
c-3 -21 -11 -59 -17 -86 l-10 -47 -17 22 c-32 42 -81 135 -74 141 3 4 33 7 66
7 l59 0 -7 -37z m-538 -400 c-2 -16 -4 -3 -4 27 0 30 2 43 4 28 2 -16 2 -40 0
-55z m46 -415 c10 -16 13 -28 7 -28 -10 0 -50 58 -50 73 0 11 21 -11 43 -45z
m687 -1562 c80 -9 219 -26 310 -37 91 -10 233 -24 315 -30 83 -6 161 -13 174
-16 43 -8 3 -22 -69 -23 -77 -2 -246 0 -275 3 -14 1 -19 -3 -17 -15 2 -15 -5
-18 -39 -18 -55 0 -127 -39 -113 -62 3 -5 -2 -11 -11 -14 -11 -4 -12 -10 -6
-18 13 -15 -71 -7 -334 33 -104 16 -219 32 -255 36 -36 4 -121 18 -190 32
-176 36 -180 37 -180 25 0 -6 8 -13 18 -16 54 -17 230 -48 387 -70 99 -14 256
-36 349 -50 93 -15 175 -26 183 -26 7 0 13 -5 13 -11 0 -5 -4 -8 -9 -5 -10 7
-24 -22 -16 -34 3 -5 1 -11 -5 -15 -5 -3 -10 0 -10 7 0 9 -3 9 -10 -2 -5 -8
-7 -23 -4 -34 4 -12 2 -16 -5 -12 -7 4 -11 -1 -11 -13 0 -11 -5 -23 -11 -26
-5 -4 -8 -12 -6 -18 9 -25 -31 -84 -60 -90 -15 -3 -152 -2 -303 1 -399 10
-416 9 -580 -33 -79 -20 -147 -38 -152 -41 -4 -3 -8 0 -8 5 0 6 5 11 11 11 6
0 8 9 4 21 -5 14 -3 19 4 15 7 -5 10 3 7 23 -2 20 3 36 14 46 11 10 108 34
259 63 162 32 241 51 241 59 0 16 6 16 -81 -2 -40 -9 -74 -13 -76 -11 -3 2 20
9 51 16 31 6 58 15 61 20 3 5 -9 5 -27 0 -18 -4 -61 -14 -95 -21 -35 -7 -63
-17 -63 -22 0 -4 -8 -6 -19 -2 -10 3 -31 0 -47 -6 -16 -7 -37 -11 -48 -10 -10
2 -22 -1 -25 -6 -7 -10 -102 -36 -108 -29 -3 2 0 36 6 74 6 39 8 79 5 89 -5
15 -4 16 6 3 9 -12 11 -8 8 22 -2 20 -1 35 3 33 3 -3 6 8 6 23 0 24 14 151 17
152 1 1 55 12 121 25 109 22 139 24 335 21 118 -2 280 -11 360 -20z m3037 -78
c-3 -8 -6 -5 -6 6 -1 11 2 17 5 13 3 -3 4 -12 1 -19z m-2058 -22 c-9 -7 -29
-10 -54 -6 l-40 6 50 16 c50 15 71 8 44 -16z m-1845 -61 c-6 -31 -8 -35 -16
-20 -7 11 -6 26 1 42 16 35 24 23 15 -22z m1379 38 c-7 -2 -21 -2 -30 0 -10 3
-4 5 12 5 17 0 24 -2 18 -5z m-75 -40 c-10 -2 -26 -2 -35 0 -10 3 -2 5 17 5
19 0 27 -2 18 -5z m-247 -326 c-10 -9 -11 -8 -5 6 3 10 9 15 12 12 3 -3 0 -11
-7 -18z m-1140 -58 c-8 -21 -10 -22 -16 -6 -4 10 -2 24 6 33 17 20 23 5 10
-27z m897 -5 c51 -3 91 -9 88 -12 -3 -3 -41 -20 -83 -39 -102 -44 -123 -65
-123 -120 0 -42 -7 -52 -25 -34 -6 6 -17 4 -29 -5 -11 -8 -16 -14 -10 -14 17
0 -21 -20 -39 -20 -10 0 -28 -9 -39 -20 -17 -15 -24 -17 -30 -8 -7 12 -12 4
-9 -15 1 -5 -3 -6 -8 -3 -14 9 -61 -15 -54 -27 4 -6 0 -8 -10 -4 -10 3 -17 3
-17 -1 0 -4 -21 -18 -47 -32 -72 -36 -134 -80 -128 -90 7 -11 459 219 463 236
2 9 11 12 27 8 13 -3 26 0 30 6 10 16 21 -12 94 -225 70 -204 78 -237 58 -230
-8 4 -36 -12 -63 -33 -61 -48 -94 -66 -94 -52 0 5 5 10 10 10 21 0 9 28 -14
32 -32 6 -43 -18 -20 -43 13 -15 14 -22 5 -33 -7 -8 -8 -15 -2 -18 5 -1 17
-39 26 -83 l16 -81 -29 -90 c-16 -50 -35 -102 -43 -115 -7 -13 -25 -96 -40
-184 -15 -88 -30 -174 -34 -191 -6 -28 -2 -36 34 -72 23 -22 41 -47 41 -56 0
-8 5 -18 12 -22 8 -5 9 2 5 25 -5 25 -1 40 23 73 17 22 30 46 30 53 0 24 -62
105 -81 105 -10 0 -19 5 -19 10 0 6 4 10 9 10 5 0 11 14 15 30 7 35 27 39 41
8 6 -13 24 -29 41 -37 36 -15 140 -162 130 -183 -9 -19 -24 -41 -98 -145 -36
-51 -68 -99 -71 -106 -3 -8 -19 -1 -48 21 -127 94 -235 157 -244 143 -3 -5 21
-24 52 -40 79 -42 212 -142 207 -156 -7 -16 -97 -73 -130 -81 -40 -9 -48 -15
-33 -24 8 -6 -3 -12 -32 -20 -24 -6 -58 -16 -75 -22 -42 -15 -64 1 -144 106
-43 56 -77 90 -100 100 -19 8 -47 23 -62 32 -15 10 -31 14 -35 10 -4 -5 -2
-11 6 -14 29 -10 50 -43 57 -89 10 -73 52 -107 84 -68 20 24 35 18 65 -26 16
-22 37 -45 47 -50 21 -11 14 -33 -8 -25 -8 3 -52 -13 -97 -35 -98 -50 -149
-56 -176 -20 -10 12 -32 66 -51 119 -32 94 -103 249 -135 294 -18 26 -19 58
-4 111 7 28 15 37 32 37 20 1 21 2 5 14 -15 11 -16 18 -7 52 6 21 15 42 20 45
9 5 79 280 150 585 27 114 37 143 54 150 25 11 31 46 11 63 -18 15 -9 46 30
97 40 52 20 54 -27 3 -22 -24 -40 -45 -39 -47 0 -1 -3 -9 -7 -16 -7 -12 -27
-12 -137 0 -71 8 -153 21 -181 29 l-52 16 33 65 c18 37 38 83 45 103 14 45 32
66 20 23 -11 -38 1 -43 18 -6 9 21 16 24 39 19 42 -9 234 -31 262 -30 74 3 90
6 90 13 0 5 -64 14 -142 21 -129 11 -215 23 -222 33 -8 9 -14 68 -7 64 11 -7
18 12 17 46 -1 14 2 24 6 22 4 -3 8 7 8 21 0 14 7 39 15 54 13 26 26 31 162
64 81 20 157 38 168 41 24 5 421 -2 553 -10z m-13 -103 c-3 -6 -14 -11 -23
-11 -13 0 -13 2 4 14 21 15 30 14 19 -3z m-3462 -31 c28 0 47 -3 44 -6 -11
-11 -171 -4 -182 8 -7 7 4 9 39 4 27 -3 71 -6 99 -6z m90 -17 c-7 -2 -19 -2
-25 0 -7 3 -2 5 12 5 14 0 19 -2 13 -5z m397 -63 c-20 -5 -39 -5 -44 1 -6 5 7
9 35 8 l44 -1 -35 -8z m288 3 c-21 -2 -55 -2 -75 0 -21 2 -4 4 37 4 41 0 58
-2 38 -4z m-1893 -53 c-3 -5 -16 -15 -28 -21 -19 -9 -19 -8 3 10 28 23 34 26
25 11z m3646 -23 c-10 -9 -11 -8 -5 6 3 10 9 15 12 12 3 -3 0 -11 -7 -18z
m-1380 -304 c13 -16 12 -17 -3 -4 -17 13 -22 21 -14 21 2 0 10 -8 17 -17z
m1985 -1448 c-11 -8 -27 -15 -35 -14 -9 0 -2 7 14 14 39 18 45 18 21 0z m3229
-805 c4 -6 3 -10 -2 -9 -4 1 -16 -1 -26 -6 -20 -9 -32 -1 -22 14 8 14 42 14
50 1z m41 -87 c-4 -4 -14 1 -22 11 -22 31 -17 43 8 19 12 -13 18 -26 14 -30z
m-95 -36 c-8 -8 -11 -3 -11 19 1 25 2 27 11 11 8 -14 8 -22 0 -30z m44 33 c3
-5 2 -10 -4 -10 -5 0 -13 5 -16 10 -3 6 -2 10 4 10 5 0 13 -4 16 -10z m161
-71 c4 -6 3 -10 -2 -7 -44 20 -64 33 -64 40 0 11 56 -18 66 -33z m-151 -4
c-36 -30 -41 -31 -48 -6 -5 20 -5 20 68 29 6 1 -3 -10 -20 -23z m53 -232 c-10
-2 -26 -2 -35 0 -10 3 -2 5 17 5 19 0 27 -2 18 -5z"/>
<path d="M11630 9775 c0 -8 8 -15 18 -15 9 0 26 -7 36 -15 35 -27 42 -16 9 15
-34 32 -63 39 -63 15z"/>
<path d="M9497 7939 c7 -7 15 -10 18 -7 3 3 -2 9 -12 12 -14 6 -15 5 -6 -5z"/>
<path d="M9550 7920 c8 -5 20 -10 25 -10 6 0 3 5 -5 10 -8 5 -19 10 -25 10 -5
0 -3 -5 5 -10z"/>
<path d="M9640 7884 c0 -7 52 -25 57 -20 2 2 -10 8 -26 14 -17 6 -31 9 -31 6z"/>
<path d="M10518 4476 c-10 -7 -18 -17 -18 -21 0 -5 8 -1 18 7 9 9 24 18 32 21
13 5 13 5 0 6 -8 0 -23 -6 -32 -13z"/>
<path d="M11090 4308 c-46 -28 -44 -27 -37 -34 8 -8 97 37 97 48 0 14 -24 8
-60 -14z"/>
<path d="M10509 3698 c0 -2 -3 -63 -5 -135 -3 -89 -2 -133 6 -133 5 0 10 20
10 43 0 24 3 85 6 135 5 67 4 92 -5 92 -6 0 -11 -1 -12 -2z"/>
<path d="M10366 3593 c-12 -45 -36 -196 -32 -201 11 -10 17 6 32 94 8 49 17
97 20 107 3 9 1 17 -5 17 -5 0 -12 -8 -15 -17z"/>
<path d="M10690 3513 c-20 -74 -24 -116 -10 -111 8 2 15 20 17 39 2 19 8 47
13 63 12 36 12 46 0 46 -5 0 -14 -17 -20 -37z"/>
<path d="M10690 3387 c0 -17 58 -73 66 -64 7 7 -45 77 -57 77 -5 0 -9 -6 -9
-13z"/>
<path d="M10495 3331 c-3 -6 9 -30 27 -53 18 -24 34 -45 36 -47 1 -3 7 0 13 6
8 8 -18 49 -66 101 -2 2 -6 -1 -10 -7z"/>
<path d="M10330 3283 c1 -5 21 -30 46 -57 33 -36 48 -46 54 -37 4 8 12 11 18
7 6 -3 13 -2 16 3 7 11 -30 45 -42 37 -5 -3 -22 8 -37 24 -27 28 -56 40 -55
23z"/>
<path d="M10590 3202 c0 -4 21 -18 47 -31 49 -24 118 -76 190 -145 43 -40 72
-44 37 -5 -38 43 -160 137 -211 163 -57 28 -63 30 -63 18z"/>
<path d="M10748 2963 c7 -3 16 -2 19 1 4 3 -2 6 -13 5 -11 0 -14 -3 -6 -6z"/>
<path d="M11110 10015 c-257 -62 -398 -108 -407 -132 -9 -24 2 -24 58 2 56 25
435 125 476 125 14 0 23 6 23 15 0 20 -33 18 -150 -10z"/>
<path d="M11103 9794 c-93 -19 -152 -44 -224 -97 -65 -47 -77 -80 -52 -134 36
-77 122 -131 224 -140 113 -11 248 67 285 162 13 35 16 63 11 122 -3 41 -10
80 -16 86 -16 16 -151 17 -228 1z m183 -10 c43 -12 58 -127 25 -199 -40 -87
-134 -140 -246 -139 -84 1 -134 23 -188 83 -45 49 -50 96 -14 128 62 57 158
100 267 118 86 15 126 17 156 9z"/>
<path d="M11024 9645 c-7 -18 3 -35 21 -35 15 0 24 19 18 38 -6 17 -32 15 -39
-3z"/>
<path d="M10650 9763 c-17 -62 -25 -163 -11 -163 6 0 11 1 11 3 0 1 9 43 19
92 10 50 17 93 14 98 -10 17 -23 5 -33 -30z"/>
<path d="M10280 9743 c-130 -16 -630 -154 -630 -175 0 -13 13 -10 165 34 164
48 304 84 405 104 83 17 111 27 93 36 -4 2 -19 3 -33 1z"/>
<path d="M10165 9478 c-169 -17 -393 -92 -436 -146 -32 -42 -25 -80 25 -128
67 -64 139 -87 254 -81 77 3 102 9 150 33 69 36 112 94 131 178 15 67 1 141
-28 148 -9 2 -52 0 -96 -4z m92 -30 c19 -24 21 -58 9 -112 -24 -103 -74 -155
-173 -181 -127 -33 -245 -11 -318 59 -57 54 -59 84 -11 121 97 74 459 156 493
113z"/>
<path d="M10005 9340 c-8 -14 3 -30 21 -30 8 0 14 9 14 20 0 21 -24 28 -35 10z"/>
<path d="M10625 9394 c8 -74 30 -165 76 -316 24 -79 36 -102 65 -128 36 -31
36 -31 32 -102 -2 -46 1 -73 8 -75 15 -5 24 30 24 100 0 55 -2 60 -40 95 -36
34 -42 48 -79 182 -22 80 -47 181 -54 224 -8 47 -19 82 -26 84 -11 4 -12 -9
-6 -64z"/>
<path d="M9335 8958 c-9 -27 -53 -186 -65 -235 -13 -57 -43 -103 -66 -103 -15
0 -19 -25 -6 -34 5 -3 23 7 41 22 27 23 36 43 61 142 16 64 36 135 45 159 8
24 15 47 15 52 0 14 -20 11 -25 -3z"/>
<path d="M9577 8964 c-10 -11 3 -24 23 -24 26 0 164 -47 220 -74 59 -29 61
-49 17 -207 -44 -156 -50 -199 -32 -199 7 0 16 15 20 33 4 17 22 99 42 181 34
149 34 149 15 175 -16 22 -56 43 -172 89 -22 8 -112 32 -123 32 -2 0 -7 -3
-10 -6z"/>
<path d="M9463 8863 c-11 -27 -39 -95 -63 -153 -24 -58 -54 -117 -67 -131 -30
-32 -12 -53 18 -22 17 16 120 254 143 331 14 42 -12 22 -31 -25z"/>
<path d="M9567 8783 c3 -10 18 -36 33 -58 34 -53 43 -85 24 -92 -15 -6 -20
-33 -5 -33 6 0 7 -24 4 -56 -5 -46 -3 -56 8 -52 8 3 16 19 19 38 l5 32 28 -43
c16 -24 24 -45 18 -47 -20 -7 1 -31 32 -38 18 -3 37 -9 42 -13 15 -11 111 -38
195 -55 82 -17 156 -36 269 -67 40 -11 76 -17 79 -14 11 11 -20 23 -113 45
-83 20 -115 29 -277 76 -32 9 -58 22 -58 28 0 6 -10 22 -21 36 -20 24 -20 18
-2 -26 5 -14 2 -16 -22 -10 -16 4 -40 15 -54 25 -14 10 -31 16 -37 14 -6 -2
-11 14 -12 37 -3 39 -36 118 -55 131 -15 10 0 26 30 33 77 18 110 46 54 46
-23 0 -30 6 -36 28 -4 15 -9 22 -12 15 -2 -7 0 -21 6 -32 9 -16 7 -21 -18 -29
-33 -12 -40 -6 -80 61 -23 38 -56 53 -44 20z m113 -205 c0 -5 -4 -8 -10 -8 -5
0 -10 10 -10 23 0 18 2 19 10 7 5 -8 10 -18 10 -22z"/>
<path d="M8815 8781 c-3 -5 -1 -12 5 -16 5 -3 10 1 10 9 0 18 -6 21 -15 7z"/>
<path d="M8925 8720 c-9 -14 -12 -11 58 -50 39 -22 62 -29 68 -23 7 7 -9 22
-48 44 -74 43 -70 42 -78 29z"/>
<path d="M10642 8511 c4 -11 166 -121 178 -121 19 0 10 15 -21 37 l-32 21 62
13 c54 10 81 23 70 34 -7 5 -124 -17 -133 -25 -5 -5 -32 5 -61 21 -54 30 -69
35 -63 20z"/>
<path d="M9100 8252 c0 -13 55 -96 76 -113 18 -16 77 -39 97 -39 20 0 -16 29
-43 35 -30 7 -83 59 -102 101 -11 23 -28 33 -28 16z"/>
<path d="M9304 8188 c20 -56 28 -65 67 -85 56 -27 89 -37 89 -25 0 5 -27 20
-59 34 -57 25 -60 28 -77 82 -10 31 -23 56 -30 56 -10 0 -7 -17 10 -62z"/>
<path d="M9495 8099 c-4 -5 24 -23 60 -39 74 -33 78 -34 73 -20 -5 16 -127 70
-133 59z"/>
<path d="M10370 7700 c0 -5 5 -10 11 -10 5 0 7 5 4 10 -3 6 -8 10 -11 10 -2 0
-4 -4 -4 -10z"/>
<path d="M11160 7304 c0 -8 5 -12 10 -9 6 4 8 11 5 16 -9 14 -15 11 -15 -7z"/>
<path d="M10614 7238 c3 -35 10 -76 15 -93 8 -27 9 -25 8 19 -2 54 17 76 64
76 15 0 31 5 34 10 4 7 -12 10 -47 8 -48 -3 -53 -1 -56 20 -2 12 -8 22 -14 22
-7 0 -9 -21 -4 -62z"/>
<path d="M11948 7260 c10 -12 18 -16 21 -9 2 6 -3 15 -10 20 -24 15 -29 10
-11 -11z"/>
<path d="M10705 6970 c-3 -6 1 -13 10 -16 19 -8 30 0 20 15 -8 14 -22 14 -30
1z"/>
<path d="M12366 6873 c-4 -43 -16 -136 -26 -208 -19 -125 -60 -593 -60 -683 0
-24 4 -41 9 -38 10 7 16 56 41 377 11 141 29 312 39 380 24 148 29 241 14 246
-7 3 -13 -26 -17 -74z"/>
<path d="M12331 6924 c0 -11 3 -14 6 -6 3 7 2 16 -1 19 -3 4 -6 -2 -5 -13z"/>
<path d="M12320 6861 c0 -17 2 -31 4 -31 8 0 13 51 5 56 -5 3 -9 -9 -9 -25z"/>
<path d="M11517 6816 c-13 -20 -14 -25 -3 -29 9 -4 17 4 21 20 8 35 1 39 -18
9z"/>
<path d="M12296 6688 c-10 -73 -24 -155 -31 -183 -8 -27 -16 -90 -19 -140 -3
-49 -8 -106 -11 -125 -5 -24 -3 -30 3 -20 6 8 15 58 22 110 6 52 15 111 20
130 5 19 14 76 20 125 5 50 12 106 16 125 11 73 13 110 5 110 -4 0 -16 -60
-25 -132z"/>
<path d="M11130 6800 c0 -5 7 -10 15 -10 8 0 15 5 15 10 0 6 -7 10 -15 10 -8
0 -15 -4 -15 -10z"/>
<path d="M11987 6793 c-4 -3 -7 -11 -7 -17 0 -6 5 -5 12 2 6 6 9 14 7 17 -3 3
-9 2 -12 -2z"/>
<path d="M10751 6734 c0 -11 3 -14 6 -6 3 7 2 16 -1 19 -3 4 -6 -2 -5 -13z"/>
<path d="M12167 6564 c-8 -8 1 -24 14 -24 5 0 9 7 9 15 0 15 -12 20 -23 9z"/>
<path d="M11660 6505 c0 -5 5 -17 10 -25 5 -8 10 -10 10 -5 0 6 -5 17 -10 25
-5 8 -10 11 -10 5z"/>
<path d="M10693 6163 c9 -2 23 -2 30 0 6 3 -1 5 -18 5 -16 0 -22 -2 -12 -5z"/>
<path d="M12237 5904 c14 -36 260 -244 289 -244 19 0 -48 66 -151 148 -36 29
-71 64 -77 78 -8 17 -18 24 -30 21 -10 -3 -18 -1 -18 4 0 5 -4 9 -10 9 -5 0
-7 -7 -3 -16z"/>
<path d="M10400 5570 c0 -6 7 -10 15 -10 8 0 15 2 15 4 0 2 -7 6 -15 10 -8 3
-15 1 -15 -4z"/>
<path d="M10440 5570 c0 -5 5 -10 11 -10 5 0 7 5 4 10 -3 6 -8 10 -11 10 -2 0
-4 -4 -4 -10z"/>
<path d="M12135 5520 c3 -5 10 -10 16 -10 5 0 9 5 9 10 0 6 -7 10 -16 10 -8 0
-12 -4 -9 -10z"/>
<path d="M12160 5470 c0 -5 5 -10 11 -10 5 0 7 5 4 10 -3 6 -8 10 -11 10 -2 0
-4 -4 -4 -10z"/>
<path d="M12282 2293 c2 -9 17 -20 33 -25 17 -4 34 -17 40 -30 7 -16 19 -23
40 -23 31 -1 288 -116 474 -213 114 -59 332 -154 339 -148 10 11 -14 26 -81
52 -80 30 -291 134 -322 159 -18 15 -17 15 12 1 32 -16 54 -7 30 11 -11 9 -44
23 -50 22 -1 0 -25 11 -53 25 -65 32 -235 103 -299 124 -27 9 -51 20 -53 24
-2 5 -11 8 -20 8 -9 0 -30 7 -46 15 -37 19 -48 19 -44 -2z"/>
<path d="M12535 2281 c-10 -17 240 -132 490 -226 77 -29 163 -62 192 -73 29
-12 55 -18 57 -13 6 9 -103 56 -289 124 -124 46 -346 144 -401 178 -36 22 -41
23 -49 10z"/>
<path d="M14110 2036 c0 -9 7 -16 16 -16 9 0 14 5 12 12 -6 18 -28 21 -28 4z"/>
<path d="M13135 1940 c3 -5 8 -10 11 -10 2 0 4 5 4 10 0 6 -5 10 -11 10 -5 0
-7 -4 -4 -10z"/>
<path d="M13380 1825 c0 -9 5 -15 11 -13 6 2 11 8 11 13 0 5 -5 11 -11 13 -6
2 -11 -4 -11 -13z"/>
</g>
</svg>
